# Blender v3.5.1 OBJ File: ''
# www.blender.org
mtllib 4thrail.mtl
o christunnel_(1)_christunnel_(1).003
v 0.723866 0.025377 0.047500
v 0.723866 0.015955 0.047500
v 0.723866 0.015955 -0.047500
v 0.457161 0.025377 0.047500
v 0.457161 0.015955 0.047500
v 0.457161 0.025377 -0.047500
v 0.457161 0.015955 -0.047500
v 0.723866 0.025377 -0.047500
v -0.463001 0.025377 0.047500
v -0.463001 0.015955 0.047500
v -0.463001 0.015955 -0.047500
v -0.729707 0.025377 0.047500
v -0.729707 0.015955 0.047500
v -0.729707 0.025377 -0.047500
v -0.729707 0.015955 -0.047500
v -0.463001 0.025377 -0.047500
v 0.027711 0.163865 -0.500000
v -0.034789 0.163865 -0.500000
v -0.034788 0.163865 0.500000
v 0.058962 0.064475 0.500000
v -0.066037 0.064475 0.500000
v -0.066038 0.064475 -0.500000
v -0.034789 0.143865 -0.500000
v 0.027712 0.163865 0.500000
v 0.027712 0.143865 0.500000
v 0.027711 0.143865 -0.500000
v -0.034788 0.143865 0.500000
v 0.012086 0.123865 -0.500000
v -0.019164 0.123865 -0.500000
v 0.012087 0.123865 0.500000
v -0.019163 0.123865 0.500000
v 0.012086 0.084475 -0.500000
v -0.019164 0.084475 -0.500000
v 0.012087 0.084475 0.500000
v -0.019163 0.084475 0.500000
v -0.066038 0.074475 -0.500000
v 0.058961 0.074475 -0.500000
v 0.058961 0.064475 -0.500000
v 0.058962 0.074475 0.500000
v -0.066037 0.074475 0.500000
v -0.564680 0.137044 -0.500000
v -0.627180 0.137044 -0.500000
v -0.627179 0.137044 0.500000
v -0.533430 0.012044 0.500000
v -0.658429 0.012044 0.500000
v -0.658430 0.012044 -0.500000
v -0.564680 0.117044 -0.500000
v -0.627180 0.117044 -0.500000
v -0.627179 0.117044 0.500000
v -0.564679 0.117044 0.500000
v -0.564679 0.137044 0.500000
v -0.611555 0.097044 -0.500000
v -0.611554 0.097044 0.500000
v -0.580304 0.097044 0.500000
v -0.580305 0.097044 -0.500000
v -0.611555 0.032044 -0.500000
v -0.611554 0.032044 0.500000
v -0.580304 0.032044 0.500000
v -0.580305 0.032044 -0.500000
v -0.533431 0.022044 -0.500000
v -0.533431 0.012044 -0.500000
v -0.658430 0.022044 -0.500000
v -0.658429 0.022044 0.500000
v -0.533430 0.022044 0.500000
v 0.622818 0.137044 -0.500000
v 0.560318 0.137044 -0.500000
v 0.560319 0.137044 0.500000
v 0.654069 0.012044 0.500000
v 0.529070 0.012044 0.500000
v 0.529069 0.012044 -0.500000
v 0.560318 0.117044 -0.500000
v 0.622819 0.137044 0.500000
v 0.622819 0.117044 0.500000
v 0.622818 0.117044 -0.500000
v 0.560319 0.117044 0.500000
v 0.607193 0.097044 -0.500000
v 0.575943 0.097044 -0.500000
v 0.607194 0.097044 0.500000
v 0.575944 0.097044 0.500000
v 0.607193 0.032044 -0.500000
v 0.575943 0.032044 -0.500000
v 0.607194 0.032044 0.500000
v 0.575944 0.032044 0.500000
v 0.529069 0.022044 -0.500000
v 0.654068 0.022044 -0.500000
v 0.654068 0.012044 -0.500000
v 0.654069 0.022044 0.500000
v 0.529070 0.022044 0.500000
v -0.087006 0.071063 -0.000000
v -0.002180 0.106199 -0.000000
v -0.044593 0.071063 -0.073461
v -0.122142 -0.013762 0.000000
v -0.062161 -0.013762 -0.103889
v 0.040232 0.071063 -0.073461
v 0.057800 -0.013762 -0.103889
v 0.082645 0.071063 -0.000000
v 0.117781 -0.013762 0.000000
v 0.040232 0.071063 0.073461
v 0.057800 -0.013762 0.103890
v -0.044593 0.071063 0.073461
v -0.062161 -0.013762 0.103890
v -0.906638 0.163865 -0.500000
v -0.969138 0.163865 -0.500000
v -0.969137 0.163865 0.500000
v -0.875387 0.064475 0.500000
v -1.000386 0.064475 0.500000
v -1.000387 0.064475 -0.500000
v -0.969138 0.143865 -0.500000
v -0.906637 0.163865 0.500000
v -0.906637 0.143865 0.500000
v -0.906638 0.143865 -0.500000
v -0.969137 0.143865 0.500000
v -0.922263 0.123865 -0.500000
v -0.953513 0.123865 -0.500000
v -0.922262 0.123865 0.500000
v -0.953512 0.123865 0.500000
v -0.922263 0.084475 -0.500000
v -0.953513 0.084475 -0.500000
v -0.922262 0.084475 0.500000
v -0.953512 0.084475 0.500000
v -1.000387 0.074475 -0.500000
v -0.875388 0.074475 -0.500000
v -0.875388 0.064475 -0.500000
v -0.875387 0.074475 0.500000
v -1.000386 0.074475 0.500000
v -1.021355 0.071063 -0.000000
v -0.936529 0.106199 -0.000000
v -0.978942 0.071063 -0.073461
v -1.056491 -0.013762 0.000000
v -0.996510 -0.013762 -0.103889
v -0.894117 0.071063 -0.073461
v -0.876549 -0.013762 -0.103889
v -0.851704 0.071063 -0.000000
v -0.816568 -0.013762 0.000000
v -0.894117 0.071063 0.073461
v -0.876549 -0.013762 0.103890
v -0.978942 0.071063 0.073461
v -0.996510 -0.013762 0.103890
vt 0.027960 0.615200
vt 0.027960 0.614930
vt 0.027700 0.614930
vt 0.027960 0.615200
vt 0.027960 0.614930
vt 0.027700 0.614930
vt 0.027960 0.615200
vt 0.027960 0.614930
vt 0.027700 0.614930
vt 0.027960 0.615200
vt 0.027960 0.614930
vt 0.027700 0.614930
vt 0.027960 0.615200
vt 0.027960 0.614930
vt 0.027700 0.614930
vt 0.027700 0.615200
vt 0.027700 0.615200
vt 0.027700 0.615200
vt 0.027700 0.615200
vt 0.027700 0.615200
vt 0.027960 0.615200
vt 0.027960 0.614930
vt 0.027700 0.614930
vt 0.027960 0.615200
vt 0.027960 0.614930
vt 0.027700 0.614930
vt 0.027960 0.615200
vt 0.027960 0.614930
vt 0.027700 0.614930
vt 0.027960 0.615200
vt 0.027960 0.614930
vt 0.027700 0.614930
vt 0.027960 0.615200
vt 0.027960 0.614930
vt 0.027700 0.614930
vt 0.027700 0.615200
vt 0.027700 0.615200
vt 0.027700 0.615200
vt 0.027700 0.615200
vt 0.027700 0.615200
vt 0.196490 0.535580
vt 0.196490 0.578670
vt 0.084400 0.578670
vt 0.446490 0.441920
vt 0.446490 0.528110
vt 0.334400 0.528110
vt 0.490560 0.598260
vt 0.490560 0.584480
vt 0.501770 0.584480
vt 0.445930 0.597810
vt 0.445930 0.611610
vt 0.333840 0.611610
vt 0.476050 0.580910
vt 0.476050 0.594700
vt 0.464840 0.594700
vt 0.450030 0.450700
vt 0.450030 0.436910
vt 0.562120 0.436910
vt 0.501770 0.598260
vt 0.498960 0.612060
vt 0.493360 0.612060
vt 0.445930 0.625390
vt 0.333840 0.625390
vt 0.473250 0.608490
vt 0.467640 0.608490
vt 0.562120 0.450700
vt 0.562120 0.464490
vt 0.450030 0.464490
vt 0.498960 0.656870
vt 0.493360 0.656870
vt 0.445930 0.670210
vt 0.333840 0.670210
vt 0.473250 0.653310
vt 0.467640 0.653310
vt 0.562120 0.509310
vt 0.484950 0.670670
vt 0.484950 0.663770
vt 0.507370 0.663770
vt 0.450030 0.547230
vt 0.450030 0.540340
vt 0.562120 0.540340
vt 0.562120 0.533440
vt 0.459240 0.667100
vt 0.459240 0.660200
vt 0.481650 0.660200
vt 0.450470 0.573180
vt 0.450470 0.566280
vt 0.562560 0.566280
vt 0.562560 0.559390
vt 0.084400 0.535580
vt 0.334400 0.441920
vt 0.333840 0.597810
vt 0.464840 0.580910
vt 0.450030 0.509310
vt 0.507370 0.670670
vt 0.562120 0.547230
vt 0.450030 0.533440
vt 0.481650 0.667100
vt 0.562560 0.573180
vt 0.450470 0.559390
vt 0.190720 0.565000
vt 0.190720 0.521910
vt 0.085060 0.521910
vt 0.446580 0.524200
vt 0.446580 0.438010
vt 0.340920 0.438010
vt 0.488130 0.580570
vt 0.488130 0.594350
vt 0.498700 0.594350
vt 0.446060 0.607700
vt 0.446060 0.593900
vt 0.340400 0.593900
vt 0.474450 0.590790
vt 0.474450 0.577000
vt 0.463890 0.577000
vt 0.449920 0.433000
vt 0.449920 0.446790
vt 0.555590 0.446790
vt 0.496060 0.608150
vt 0.446060 0.621480
vt 0.340400 0.607700
vt 0.471810 0.604580
vt 0.463890 0.590790
vt 0.555590 0.460580
vt 0.496060 0.652960
vt 0.490770 0.608150
vt 0.340400 0.666300
vt 0.446060 0.666300
vt 0.471810 0.649400
vt 0.466530 0.604580
vt 0.555590 0.505400
vt 0.449920 0.460580
vt 0.482850 0.659860
vt 0.482850 0.666760
vt 0.503980 0.666760
vt 0.503980 0.659860
vt 0.490770 0.652960
vt 0.449920 0.536430
vt 0.449920 0.543320
vt 0.555590 0.543320
vt 0.555590 0.536430
vt 0.555590 0.529530
vt 0.449920 0.529530
vt 0.458600 0.656290
vt 0.458600 0.663190
vt 0.479740 0.663190
vt 0.479740 0.656290
vt 0.450340 0.562370
vt 0.450340 0.569270
vt 0.556000 0.569270
vt 0.556000 0.562370
vt 0.556000 0.555480
vt 0.450340 0.555480
vt 0.190720 0.549250
vt 0.190720 0.592340
vt 0.085060 0.592340
vt 0.446580 0.438010
vt 0.446580 0.524200
vt 0.340920 0.524200
vt 0.488130 0.594350
vt 0.488130 0.580570
vt 0.498700 0.580570
vt 0.446060 0.593900
vt 0.446060 0.607700
vt 0.340400 0.607700
vt 0.474450 0.577000
vt 0.474450 0.590790
vt 0.463890 0.590790
vt 0.449920 0.446790
vt 0.449920 0.433000
vt 0.555590 0.433000
vt 0.498700 0.594350
vt 0.496060 0.608150
vt 0.490770 0.608150
vt 0.446060 0.621480
vt 0.340400 0.621480
vt 0.471810 0.604580
vt 0.466530 0.604580
vt 0.555590 0.446790
vt 0.555590 0.460580
vt 0.449920 0.460580
vt 0.496060 0.652960
vt 0.490770 0.652960
vt 0.446060 0.666300
vt 0.340400 0.666300
vt 0.471810 0.649400
vt 0.466530 0.649400
vt 0.555590 0.505400
vt 0.482850 0.666760
vt 0.482850 0.659860
vt 0.503980 0.659860
vt 0.449920 0.543320
vt 0.449920 0.536430
vt 0.555590 0.536430
vt 0.555590 0.529530
vt 0.458600 0.663190
vt 0.458600 0.656290
vt 0.479740 0.656290
vt 0.450340 0.569270
vt 0.450340 0.562370
vt 0.556000 0.562370
vt 0.556000 0.555480
vt 0.085060 0.565000
vt 0.340920 0.524200
vt 0.498700 0.580570
vt 0.555590 0.433000
vt 0.340400 0.621480
vt 0.466530 0.649400
vt 0.449920 0.505400
vt 0.085060 0.549250
vt 0.340920 0.438010
vt 0.340400 0.593900
vt 0.463890 0.577000
vt 0.449920 0.505400
vt 0.503980 0.666760
vt 0.555590 0.543320
vt 0.449920 0.529530
vt 0.479740 0.663190
vt 0.556000 0.569270
vt 0.450340 0.555480
vt 0.134232 0.500000
vt 0.129616 0.513848
vt 0.125000 0.500000
vt 0.134232 0.486152
vt 0.125000 0.486152
vt 0.115768 0.500000
vt 0.115768 0.486152
vt 0.120384 0.513848
vt 0.111152 0.513848
vt 0.106536 0.500000
vt 0.106536 0.486152
vt 0.101919 0.513848
vt 0.097303 0.500000
vt 0.097303 0.486152
vt 0.152697 0.500000
vt 0.148080 0.513848
vt 0.143464 0.500000
vt 0.152697 0.486152
vt 0.143464 0.486152
vt 0.138848 0.513848
vt 0.196490 0.535580
vt 0.196490 0.578670
vt 0.084400 0.578670
vt 0.446490 0.441920
vt 0.446490 0.528110
vt 0.334400 0.528110
vt 0.490560 0.598260
vt 0.490560 0.584480
vt 0.501770 0.584480
vt 0.445930 0.597810
vt 0.445930 0.611610
vt 0.333840 0.611610
vt 0.476050 0.580910
vt 0.476050 0.594700
vt 0.464840 0.594700
vt 0.450030 0.450700
vt 0.450030 0.436910
vt 0.562120 0.436910
vt 0.501770 0.598260
vt 0.498960 0.612060
vt 0.493360 0.612060
vt 0.445930 0.625390
vt 0.333840 0.625390
vt 0.473250 0.608490
vt 0.467640 0.608490
vt 0.562120 0.450700
vt 0.562120 0.464490
vt 0.450030 0.464490
vt 0.498960 0.656870
vt 0.493360 0.656870
vt 0.445930 0.670210
vt 0.333840 0.670210
vt 0.473250 0.653310
vt 0.467640 0.653310
vt 0.562120 0.509310
vt 0.484950 0.670670
vt 0.484950 0.663770
vt 0.507370 0.663770
vt 0.450030 0.547230
vt 0.450030 0.540340
vt 0.562120 0.540340
vt 0.562120 0.533440
vt 0.459240 0.667100
vt 0.459240 0.660200
vt 0.481650 0.660200
vt 0.450470 0.573180
vt 0.450470 0.566280
vt 0.562560 0.566280
vt 0.562560 0.559390
vt 0.084400 0.535580
vt 0.334400 0.441920
vt 0.333840 0.597810
vt 0.464840 0.580910
vt 0.450030 0.509310
vt 0.507370 0.670670
vt 0.562120 0.547230
vt 0.450030 0.533440
vt 0.481650 0.667100
vt 0.562560 0.573180
vt 0.450470 0.559390
vt 0.134232 0.500000
vt 0.129616 0.513848
vt 0.125000 0.500000
vt 0.134232 0.486152
vt 0.125000 0.486152
vt 0.115768 0.500000
vt 0.115768 0.486152
vt 0.120384 0.513848
vt 0.111152 0.513848
vt 0.106536 0.500000
vt 0.106536 0.486152
vt 0.101919 0.513848
vt 0.097303 0.500000
vt 0.097303 0.486152
vt 0.152697 0.500000
vt 0.148080 0.513848
vt 0.143464 0.500000
vt 0.152697 0.486152
vt 0.143464 0.486152
vt 0.138848 0.513848
vn 1.0000 0.0000 0.0000
vn 0.0000 0.0000 1.0000
vn -1.0000 0.0000 0.0000
vn 0.0000 -0.0000 -1.0000
vn 0.0000 -1.0000 0.0000
vn 0.0000 1.0000 -0.0000
vn 0.7880 -0.6156 -0.0000
vn -0.7880 -0.6156 0.0000
vn 0.2086 0.9780 -0.0000
vn -0.2086 0.9780 0.0000
vn -0.3737 0.9021 -0.2157
vn -0.8152 0.3377 -0.4706
vn 0.0000 0.3376 -0.9413
vn 0.0000 0.9021 -0.4315
vn 0.3737 0.9021 -0.2157
vn 0.8152 0.3377 -0.4706
vn 0.3737 0.9021 0.2157
vn 0.8152 0.3377 0.4706
vn 0.0000 0.9021 0.4315
vn 0.0000 0.3377 0.9413
vn -0.3737 0.9021 0.2157
vn -0.8152 0.3377 0.4706
usemtl mat1.002
s 1
f 1/1/1 2/2/1 3/3/1
f 4/4/2 5/5/2 2/6/2
f 6/7/3 7/8/3 5/9/3
f 8/10/4 3/11/4 7/12/4
f 2/13/5 5/5/5 7/12/5
f 4/4/6 1/14/6 8/15/6
f 8/16/1 1/1/1 3/3/1
f 1/17/2 4/4/2 2/6/2
f 4/18/3 6/7/3 5/9/3
f 6/19/4 8/10/4 7/12/4
f 3/20/5 2/13/5 7/12/5
f 6/19/6 4/4/6 8/15/6
f 9/21/1 10/22/1 11/23/1
f 12/24/2 13/25/2 10/26/2
f 14/27/3 15/28/3 13/29/3
f 16/30/4 11/31/4 15/32/4
f 10/33/5 13/25/5 15/32/5
f 12/24/6 9/34/6 16/35/6
f 16/36/1 9/21/1 11/23/1
f 9/37/2 12/24/2 10/26/2
f 12/38/3 14/27/3 13/29/3
f 14/39/4 16/30/4 15/32/4
f 11/40/5 10/33/5 15/32/5
f 14/39/6 12/24/6 16/35/6
f 17/41/6 18/42/6 19/43/6
f 20/44/5 21/45/5 22/46/5
f 23/47/4 18/48/4 17/49/4
f 24/50/1 25/51/1 26/52/1
f 19/53/2 27/54/2 25/55/2
f 27/56/3 19/57/3 18/58/3
f 26/59/4 28/60/4 29/61/4
f 25/51/7 30/62/7 28/63/7
f 27/54/2 31/64/2 30/65/2
f 23/66/8 29/67/8 31/68/8
f 28/60/4 32/69/4 33/70/4
f 30/62/1 34/71/1 32/72/1
f 31/64/2 35/73/2 34/74/2
f 31/68/3 29/67/3 33/75/3
f 22/76/4 36/77/4 37/78/4
f 33/70/4 32/69/4 37/78/4
f 38/79/1 37/80/1 39/81/1
f 34/82/9 39/81/9 37/80/9
f 20/83/2 39/84/2 40/85/2
f 35/73/2 40/85/2 39/84/2
f 21/86/3 40/87/3 36/88/3
f 33/89/10 36/88/10 40/87/10
f 24/90/6 17/41/6 19/43/6
f 38/91/5 20/44/5 22/46/5
f 26/59/4 23/47/4 17/49/4
f 17/92/1 24/50/1 26/52/1
f 24/93/2 19/53/2 25/55/2
f 23/66/3 27/56/3 18/58/3
f 23/47/4 26/59/4 29/61/4
f 26/52/7 25/51/7 28/63/7
f 25/55/2 27/54/2 30/65/2
f 27/56/8 23/66/8 31/68/8
f 29/61/4 28/60/4 33/70/4
f 28/63/1 30/62/1 32/72/1
f 30/65/2 31/64/2 34/74/2
f 35/94/3 31/68/3 33/75/3
f 38/95/4 22/76/4 37/78/4
f 36/77/4 33/70/4 37/78/4
f 20/96/1 38/79/1 39/81/1
f 32/97/9 34/82/9 37/80/9
f 21/98/2 20/83/2 40/85/2
f 34/74/2 35/73/2 39/84/2
f 22/99/3 21/86/3 36/88/3
f 35/100/10 33/89/10 40/87/10
f 41/101/6 42/102/6 43/103/6
f 44/104/5 45/105/5 46/106/5
f 41/107/4 47/108/4 48/109/4
f 49/110/3 43/111/3 42/112/3
f 50/113/2 51/114/2 43/115/2
f 51/116/1 50/117/1 47/118/1
f 52/119/4 48/109/4 47/108/4
f 53/120/8 49/110/8 48/121/8
f 54/122/2 50/113/2 49/123/2
f 55/124/7 47/118/7 50/117/7
f 56/125/4 52/119/4 55/126/4
f 56/127/3 57/128/3 53/120/3
f 58/129/2 54/122/2 53/130/2
f 59/131/1 55/124/1 54/132/1
f 60/133/4 61/134/4 46/135/4
f 62/136/4 56/125/4 59/137/4
f 62/138/3 46/139/3 45/140/3
f 63/141/10 57/142/10 56/143/10
f 63/144/2 45/145/2 44/146/2
f 63/144/2 64/147/2 58/129/2
f 64/148/1 44/149/1 61/150/1
f 60/151/9 59/152/9 58/153/9
f 65/154/6 66/155/6 67/156/6
f 68/157/5 69/158/5 70/159/5
f 71/160/4 66/161/4 65/162/4
f 72/163/1 73/164/1 74/165/1
f 67/166/2 75/167/2 73/168/2
f 75/169/3 67/170/3 66/171/3
f 74/172/4 76/173/4 77/174/4
f 73/164/7 78/175/7 76/176/7
f 75/167/2 79/177/2 78/178/2
f 71/179/8 77/180/8 79/181/8
f 76/173/4 80/182/4 81/183/4
f 78/175/1 82/184/1 80/185/1
f 79/177/2 83/186/2 82/187/2
f 79/181/3 77/180/3 81/188/3
f 70/189/4 84/190/4 85/191/4
f 81/183/4 80/182/4 85/191/4
f 86/192/1 85/193/1 87/194/1
f 82/195/9 87/194/9 85/193/9
f 68/196/2 87/197/2 88/198/2
f 83/186/2 88/198/2 87/197/2
f 69/199/3 88/200/3 84/201/3
f 81/202/10 84/201/10 88/200/10
f 51/203/6 41/101/6 43/103/6
f 61/204/5 44/104/5 46/106/5
f 42/205/4 41/107/4 48/109/4
f 48/121/3 49/110/3 42/112/3
f 49/123/2 50/113/2 43/115/2
f 41/206/1 51/116/1 47/118/1
f 55/126/4 52/119/4 47/108/4
f 52/207/8 53/120/8 48/121/8
f 53/130/2 54/122/2 49/123/2
f 54/132/7 55/124/7 50/117/7
f 59/137/4 56/125/4 55/126/4
f 52/207/3 56/127/3 53/120/3
f 57/208/2 58/129/2 53/130/2
f 58/209/1 59/131/1 54/132/1
f 62/136/4 60/133/4 46/135/4
f 60/133/4 62/136/4 59/137/4
f 63/141/3 62/138/3 45/140/3
f 62/138/10 63/141/10 56/143/10
f 64/147/2 63/144/2 44/146/2
f 57/208/2 63/144/2 58/129/2
f 60/151/1 64/148/1 61/150/1
f 64/148/9 60/151/9 58/153/9
f 72/210/6 65/154/6 67/156/6
f 86/211/5 68/157/5 70/159/5
f 74/172/4 71/160/4 65/162/4
f 65/212/1 72/163/1 74/165/1
f 72/213/2 67/166/2 73/168/2
f 71/179/3 75/169/3 66/171/3
f 71/160/4 74/172/4 77/174/4
f 74/165/7 73/164/7 76/176/7
f 73/168/2 75/167/2 78/178/2
f 75/169/8 71/179/8 79/181/8
f 77/174/4 76/173/4 81/183/4
f 76/176/1 78/175/1 80/185/1
f 78/178/2 79/177/2 82/187/2
f 83/214/3 79/181/3 81/188/3
f 86/215/4 70/189/4 85/191/4
f 84/190/4 81/183/4 85/191/4
f 68/216/1 86/192/1 87/194/1
f 80/217/9 82/195/9 85/193/9
f 69/218/2 68/196/2 88/198/2
f 82/187/2 83/186/2 87/197/2
f 70/219/3 69/199/3 84/201/3
f 83/220/10 81/202/10 88/200/10
f 89/221/11 90/222/11 91/223/11
f 92/224/12 89/221/12 91/223/12 93/225/12
f 93/225/13 91/223/13 94/226/13 95/227/13
f 91/223/14 90/228/14 94/226/14
f 94/226/15 90/229/15 96/230/15
f 95/227/16 94/226/16 96/230/16 97/231/16
f 96/230/17 90/232/17 98/233/17
f 97/231/18 96/230/18 98/233/18 99/234/18
f 98/235/19 90/236/19 100/237/19
f 99/238/20 98/235/20 100/237/20 101/239/20
f 100/237/21 90/240/21 89/221/21
f 101/239/22 100/237/22 89/221/22 92/224/22
f 102/241/6 103/242/6 104/243/6
f 105/244/5 106/245/5 107/246/5
f 108/247/4 103/248/4 102/249/4
f 109/250/1 110/251/1 111/252/1
f 104/253/2 112/254/2 110/255/2
f 112/256/3 104/257/3 103/258/3
f 111/259/4 113/260/4 114/261/4
f 110/251/7 115/262/7 113/263/7
f 112/254/2 116/264/2 115/265/2
f 108/266/8 114/267/8 116/268/8
f 113/260/4 117/269/4 118/270/4
f 115/262/1 119/271/1 117/272/1
f 116/264/2 120/273/2 119/274/2
f 116/268/3 114/267/3 118/275/3
f 107/276/4 121/277/4 122/278/4
f 118/270/4 117/269/4 122/278/4
f 123/279/1 122/280/1 124/281/1
f 119/282/9 124/281/9 122/280/9
f 105/283/2 124/284/2 125/285/2
f 120/273/2 125/285/2 124/284/2
f 106/286/3 125/287/3 121/288/3
f 118/289/10 121/288/10 125/287/10
f 109/290/6 102/241/6 104/243/6
f 123/291/5 105/244/5 107/246/5
f 111/259/4 108/247/4 102/249/4
f 102/292/1 109/250/1 111/252/1
f 109/293/2 104/253/2 110/255/2
f 108/266/3 112/256/3 103/258/3
f 108/247/4 111/259/4 114/261/4
f 111/252/7 110/251/7 113/263/7
f 110/255/2 112/254/2 115/265/2
f 112/256/8 108/266/8 116/268/8
f 114/261/4 113/260/4 118/270/4
f 113/263/1 115/262/1 117/272/1
f 115/265/2 116/264/2 119/274/2
f 120/294/3 116/268/3 118/275/3
f 123/295/4 107/276/4 122/278/4
f 121/277/4 118/270/4 122/278/4
f 105/296/1 123/279/1 124/281/1
f 117/297/9 119/282/9 122/280/9
f 106/298/2 105/283/2 125/285/2
f 119/274/2 120/273/2 124/284/2
f 107/299/3 106/286/3 121/288/3
f 120/300/10 118/289/10 125/287/10
f 126/301/11 127/302/11 128/303/11
f 129/304/12 126/301/12 128/303/12 130/305/12
f 130/305/13 128/303/13 131/306/13 132/307/13
f 128/303/14 127/308/14 131/306/14
f 131/306/15 127/309/15 133/310/15
f 132/307/16 131/306/16 133/310/16 134/311/16
f 133/310/17 127/312/17 135/313/17
f 134/311/18 133/310/18 135/313/18 136/314/18
f 135/315/19 127/316/19 137/317/19
f 136/318/20 135/315/20 137/317/20 138/319/20
f 137/317/21 127/320/21 126/301/21
f 138/319/22 137/317/22 126/301/22 129/304/22
o christunnel_(1).001_christunnel_(1).004
v 0.673901 0.030006 -0.005625
v 0.657953 0.076600 0.004682
v 0.622174 0.043713 -0.004928
v 0.511486 0.030005 0.005624
v 0.527351 0.076581 -0.004610
v 0.562930 0.043761 0.005183
v -0.512967 0.030006 -0.005624
v -0.528832 0.076581 0.004609
v -0.564411 0.043761 -0.005183
v -0.675381 0.030006 0.005625
v -0.659434 0.076600 -0.004682
v -0.623654 0.043713 0.004928
vt 0.153753 0.574722
vt 0.155492 0.574370
vt 0.154801 0.574780
vt 0.153823 0.574625
vt 0.155492 0.574376
vt 0.154863 0.573905
vt 0.154305 0.574601
vt 0.155492 0.574376
vt 0.155068 0.574569
vt 0.154118 0.574149
vt 0.155492 0.574370
vt 0.155071 0.574693
vn -0.0482 -0.2314 0.9717
vn 0.0536 -0.2317 -0.9713
vn -0.0536 -0.2317 0.9713
vn 0.0482 -0.2314 -0.9717
usemtl mat1.002
s 1
f 139/321/23 140/322/23 141/323/23
f 142/324/24 143/325/24 144/326/24
f 145/327/25 146/328/25 147/329/25
f 148/330/26 149/331/26 150/332/26
o Cylinder_Cylinder.002
v 0.797817 0.014344 -0.145662
v 0.797817 -0.048112 -0.145662
v 0.797817 0.014344 0.145546
v 0.797817 -0.048112 0.145546
v -1.119843 0.014344 -0.145662
v -1.119843 -0.048112 -0.145662
v -1.119843 0.014344 0.145546
v -1.119843 -0.048112 0.145546
vt 0.375000 0.000000
vt 0.625000 0.000000
vt 0.625000 0.250000
vt 0.375000 0.250000
vt 0.625000 0.500000
vt 0.375000 0.500000
vt 0.625000 0.750000
vt 0.375000 0.750000
vt 0.625000 1.000000
vt 0.375000 1.000000
vt 0.125000 0.500000
vt 0.125000 0.750000
vt 0.875000 0.500000
vt 0.875000 0.750000
vn -1.0000 -0.0000 0.0000
vn 0.0000 -0.0000 -1.0000
vn 1.0000 0.0000 0.0000
vn 0.0000 0.0000 1.0000
vn 0.0000 -1.0000 -0.0000
vn 0.0000 1.0000 0.0000
usemtl m_269fb0d1-3de5-96b0-0cae-c3b8b21fbf9b.002
s off
f 158/333/27 157/334/27 155/335/27 156/336/27
f 156/336/28 155/335/28 151/337/28 152/338/28
f 152/338/29 151/337/29 153/339/29 154/340/29
f 154/340/30 153/339/30 157/341/30 158/342/30
f 156/343/31 152/338/31 154/340/31 158/344/31
f 151/337/32 155/345/32 157/346/32 153/339/32
