# Blender 3.6.1
# www.blender.org
mtllib 3_wide.mtl
o Circle.001
v 0.000000 2.483883 0.308349
v 0.000000 1.775363 0.101986
v 0.000000 1.000000 0.025620
v 0.000000 0.313093 0.075154
v 1.500000 2.483883 0.308349
v 1.500000 1.775363 0.101986
v 1.500000 1.000000 0.025619
v 1.500000 0.313093 0.075153
v 0.000000 3.000000 0.555310
v 1.500000 3.000000 0.555309
v 0.000000 0.000000 0.143486
v 1.500000 0.000000 0.143485
v 0.000000 2.149066 0.194295
v 0.000000 1.389556 0.044773
v 0.000000 0.621501 0.041419
v 0.000000 0.121501 0.109959
v 1.500000 2.149066 0.194295
v 1.500000 1.389556 0.044773
v 1.500000 0.621501 0.041418
v 1.500000 0.121501 0.109959
v 0.750000 1.775363 0.101986
v 0.750000 1.000000 0.025619
v 0.750000 0.313093 0.075153
v 0.750000 2.483883 0.308349
v 0.000000 2.759511 0.430379
v 1.500000 2.759511 0.430379
v 0.750000 3.000000 0.555310
v 0.750000 0.000000 0.143485
v 0.750000 1.389556 0.044773
v 0.750000 0.621501 0.041419
v 0.750000 0.121501 0.109959
v 0.750000 2.149066 0.194295
v 0.750000 2.759511 0.430379
v -1.500000 2.483883 0.308350
v -1.500000 1.775363 0.101986
v -1.500000 1.000000 0.025620
v -1.500000 0.313093 0.075154
v -1.500000 3.000000 0.555310
v -1.500000 0.000000 0.143486
v -1.500000 2.149066 0.194295
v -1.500000 1.389556 0.044773
v -1.500000 0.621501 0.041419
v -1.500000 0.121501 0.109959
v -0.750000 1.775363 0.101986
v -0.750000 1.000000 0.025620
v -0.750000 0.313093 0.075154
v -0.750000 2.483883 0.308350
v -1.500000 2.759511 0.430379
v -0.750000 3.000000 0.555310
v -0.750000 0.000000 0.143486
v -0.750000 1.389556 0.044773
v -0.750000 0.621501 0.041419
v -0.750000 0.121501 0.109959
v -0.750000 2.149066 0.194295
v -0.750000 2.759511 0.430379
vn -0.0000 -0.0037 1.0000
vn -0.0000 -0.0980 0.9952
vn -0.0000 -0.1935 0.9811
vn -0.0000 0.1438 0.9896
vn -0.0000 0.0753 0.9972
vn -0.0000 0.2660 0.9640
vn -0.0000 0.2226 0.9749
vn -0.0000 -0.2814 0.9596
vn -0.0000 -0.3640 0.9314
vn -0.0000 -0.4331 0.9013
vn -0.0000 -0.4610 0.8874
vt 0.500000 0.666667
vt 0.750000 0.666667
vt 0.750000 0.536815
vt 0.500000 0.536815
vt 1.000000 0.666667
vt 1.000000 0.536815
vt 1.000000 0.408212
vt 0.750000 0.408212
vt 0.500000 0.408212
vt 0.500000 0.895636
vt 0.750000 0.895636
vt 0.750000 0.792833
vt 0.500000 0.792833
vt 1.000000 0.895636
vt 1.000000 0.792833
vt 0.500000 1.000000
vt 0.750000 1.000000
vt 0.750000 0.959500
vt 0.500000 0.959500
vt 1.000000 1.000000
vt 1.000000 0.959500
vt 0.750000 0.283644
vt 0.500000 0.283644
vt 1.000000 0.283645
vt 1.000000 0.172039
vt 0.750000 0.172039
vt 0.500000 0.172039
vt 0.750000 0.080163
vt 0.500000 0.080163
vt 1.000000 0.080163
vt 1.000000 0.000000
vt 0.750000 0.000000
vt 0.500000 0.000000
vt 0.500000 0.666667
vt 0.500000 0.536815
vt 0.250000 0.536815
vt 0.250000 0.666667
vt -0.000000 0.536815
vt -0.000000 0.666667
vt 0.250000 0.408212
vt -0.000000 0.408212
vt 0.500000 0.408212
vt 0.500000 0.895636
vt 0.500000 0.792833
vt 0.250000 0.792833
vt 0.250000 0.895636
vt -0.000000 0.792833
vt -0.000000 0.895636
vt 0.500000 1.000000
vt 0.500000 0.959500
vt 0.250000 0.959500
vt 0.250000 1.000000
vt -0.000000 0.959500
vt -0.000000 1.000000
vt 0.500000 0.283644
vt 0.250000 0.283644
vt -0.000000 0.283645
vt 0.250000 0.172039
vt -0.000000 0.172039
vt 0.250000 0.080163
vt -0.000000 0.080163
vt 0.250000 0.000000
vt -0.000000 0.000000
s 1
usemtl Material.001
f 3/1/1 22/2/1 29/3/2 14/4/2
f 22/2/1 7/5/1 18/6/2 29/3/2
f 29/3/2 18/6/2 6/7/3 21/8/3
f 14/4/2 29/3/2 21/8/3 2/9/3
f 4/10/4 23/11/4 30/12/5 15/13/5
f 23/11/4 8/14/4 19/15/5 30/12/5
f 30/12/5 19/15/5 7/5/1 22/2/1
f 15/13/5 30/12/5 22/2/1 3/1/1
f 11/16/6 28/17/6 31/18/7 16/19/7
f 28/17/6 12/20/6 20/21/7 31/18/7
f 31/18/7 20/21/7 8/14/4 23/11/4
f 16/19/7 31/18/7 23/11/4 4/10/4
f 2/9/3 21/8/3 32/22/8 13/23/8
f 21/8/3 6/7/3 17/24/8 32/22/8
f 32/22/8 17/24/8 5/25/9 24/26/9
f 13/23/8 32/22/8 24/26/9 1/27/9
f 1/27/9 24/26/9 33/28/10 25/29/10
f 24/26/9 5/25/9 26/30/10 33/28/10
f 33/28/10 26/30/10 10/31/11 27/32/11
f 25/29/10 33/28/10 27/32/11 9/33/11
f 3/34/1 14/35/2 51/36/2 45/37/1
f 45/37/1 51/36/2 41/38/2 36/39/1
f 51/36/2 44/40/3 35/41/3 41/38/2
f 14/35/2 2/42/3 44/40/3 51/36/2
f 4/43/4 15/44/5 52/45/5 46/46/4
f 46/46/4 52/45/5 42/47/5 37/48/4
f 52/45/5 45/37/1 36/39/1 42/47/5
f 15/44/5 3/34/1 45/37/1 52/45/5
f 11/49/6 16/50/7 53/51/7 50/52/6
f 50/52/6 53/51/7 43/53/7 39/54/6
f 53/51/7 46/46/4 37/48/4 43/53/7
f 16/50/7 4/43/4 46/46/4 53/51/7
f 2/42/3 13/55/8 54/56/8 44/40/3
f 44/40/3 54/56/8 40/57/8 35/41/3
f 54/56/8 47/58/9 34/59/9 40/57/8
f 13/55/8 1/27/9 47/58/9 54/56/8
f 1/27/9 25/29/10 55/60/10 47/58/9
f 47/58/9 55/60/10 48/61/10 34/59/9
f 55/60/10 49/62/11 38/63/11 48/61/10
f 25/29/10 9/33/11 49/62/11 55/60/10
